<mxfile host="app.diagrams.net" modified="2024-05-12T17:05:45.649Z" agent="Mozilla/5.0 (X11; Linux x86_64) AppleWebKit/537.36 (KHTML, like Gecko) Chrome/120.0.0.0 YaBrowser/24.1.0.0 Safari/537.36" version="24.4.0" etag="x0EB8LWz5fBheJ35AJBk" type="device">
  <diagram id="bq4bzeiGm6msjYfVVePN" name="Страница — 1">
    <mxGraphModel dx="1050" dy="1752" grid="1" gridSize="10" guides="1" tooltips="1" connect="1" arrows="1" fold="1" page="1" pageScale="1" pageWidth="827" pageHeight="1169" math="0" shadow="0">
      <root>
        <mxCell id="0" />
        <mxCell id="1" parent="0" />
        <mxCell id="gtn26Jor4i3vF73skazj-4" value="" style="endArrow=none;html=1;rounded=0;exitX=0.002;exitY=0.52;exitDx=0;exitDy=0;exitPerimeter=0;" edge="1" parent="1">
          <mxGeometry width="50" height="50" relative="1" as="geometry">
            <mxPoint x="39.99999999999994" y="-1119.84" as="sourcePoint" />
            <mxPoint x="760" y="-1120" as="targetPoint" />
          </mxGeometry>
        </mxCell>
        <mxCell id="gtn26Jor4i3vF73skazj-5" value="" style="endArrow=none;html=1;rounded=0;exitX=0.002;exitY=0.52;exitDx=0;exitDy=0;exitPerimeter=0;" edge="1" parent="1">
          <mxGeometry width="50" height="50" relative="1" as="geometry">
            <mxPoint x="39.99999999999994" y="-599.8399999999999" as="sourcePoint" />
            <mxPoint x="760" y="-600" as="targetPoint" />
          </mxGeometry>
        </mxCell>
        <mxCell id="gtn26Jor4i3vF73skazj-6" value="" style="endArrow=none;html=1;rounded=0;exitX=0.002;exitY=0.52;exitDx=0;exitDy=0;exitPerimeter=0;" edge="1" parent="1">
          <mxGeometry width="50" height="50" relative="1" as="geometry">
            <mxPoint x="39.99999999999994" y="-599.8399999999999" as="sourcePoint" />
            <mxPoint x="40" y="-1120" as="targetPoint" />
          </mxGeometry>
        </mxCell>
        <mxCell id="gtn26Jor4i3vF73skazj-7" value="" style="endArrow=none;html=1;rounded=0;exitX=0.002;exitY=0.52;exitDx=0;exitDy=0;exitPerimeter=0;" edge="1" parent="1">
          <mxGeometry width="50" height="50" relative="1" as="geometry">
            <mxPoint x="760" y="-599.8399999999999" as="sourcePoint" />
            <mxPoint x="760" y="-1120" as="targetPoint" />
          </mxGeometry>
        </mxCell>
        <mxCell id="gtn26Jor4i3vF73skazj-8" value="" style="endArrow=none;html=1;rounded=0;exitX=0.002;exitY=0.52;exitDx=0;exitDy=0;exitPerimeter=0;" edge="1" parent="1">
          <mxGeometry width="50" height="50" relative="1" as="geometry">
            <mxPoint x="200" y="-599.8399999999999" as="sourcePoint" />
            <mxPoint x="200" y="-1120" as="targetPoint" />
          </mxGeometry>
        </mxCell>
        <mxCell id="gtn26Jor4i3vF73skazj-9" value="" style="endArrow=none;html=1;rounded=0;exitX=0.002;exitY=0.52;exitDx=0;exitDy=0;exitPerimeter=0;" edge="1" parent="1">
          <mxGeometry width="50" height="50" relative="1" as="geometry">
            <mxPoint x="360" y="-599.8399999999999" as="sourcePoint" />
            <mxPoint x="360" y="-1120" as="targetPoint" />
          </mxGeometry>
        </mxCell>
        <mxCell id="gtn26Jor4i3vF73skazj-10" value="Заказчик" style="text;html=1;align=center;verticalAlign=middle;resizable=0;points=[];autosize=1;strokeColor=none;fillColor=none;" vertex="1" parent="1">
          <mxGeometry x="80" y="-1120" width="70" height="30" as="geometry" />
        </mxCell>
        <mxCell id="gtn26Jor4i3vF73skazj-11" value="Сотрудник" style="text;html=1;align=center;verticalAlign=middle;resizable=0;points=[];autosize=1;strokeColor=none;fillColor=none;" vertex="1" parent="1">
          <mxGeometry x="240" y="-1120" width="80" height="30" as="geometry" />
        </mxCell>
        <mxCell id="gtn26Jor4i3vF73skazj-12" value="Вычислительные ресурсы" style="text;html=1;align=center;verticalAlign=middle;resizable=0;points=[];autosize=1;strokeColor=none;fillColor=none;" vertex="1" parent="1">
          <mxGeometry x="445" y="-1122" width="170" height="30" as="geometry" />
        </mxCell>
        <mxCell id="gtn26Jor4i3vF73skazj-13" value="Постановка задачи" style="rounded=1;whiteSpace=wrap;html=1;arcSize=40;fontColor=#000000;fillColor=#ffffc0;strokeColor=#ff0000;" vertex="1" parent="1">
          <mxGeometry x="55" y="-1080" width="120" height="40" as="geometry" />
        </mxCell>
        <mxCell id="gtn26Jor4i3vF73skazj-14" value="" style="edgeStyle=orthogonalEdgeStyle;html=1;verticalAlign=bottom;endArrow=open;endSize=8;strokeColor=#ff0000;rounded=0;entryX=0.5;entryY=0;entryDx=0;entryDy=0;" edge="1" source="gtn26Jor4i3vF73skazj-13" parent="1" target="gtn26Jor4i3vF73skazj-17">
          <mxGeometry relative="1" as="geometry">
            <mxPoint x="115" y="-1020" as="targetPoint" />
          </mxGeometry>
        </mxCell>
        <mxCell id="gtn26Jor4i3vF73skazj-15" value="Загрузка данных" style="rounded=1;whiteSpace=wrap;html=1;arcSize=40;fontColor=#000000;fillColor=#ffffc0;strokeColor=#ff0000;" vertex="1" parent="1">
          <mxGeometry x="55" y="-970" width="120" height="40" as="geometry" />
        </mxCell>
        <mxCell id="gtn26Jor4i3vF73skazj-16" value="" style="edgeStyle=orthogonalEdgeStyle;html=1;verticalAlign=bottom;endArrow=open;endSize=8;strokeColor=#ff0000;rounded=0;entryX=0.5;entryY=0;entryDx=0;entryDy=0;" edge="1" parent="1" source="gtn26Jor4i3vF73skazj-15">
          <mxGeometry relative="1" as="geometry">
            <mxPoint x="280" y="-910" as="targetPoint" />
          </mxGeometry>
        </mxCell>
        <mxCell id="gtn26Jor4i3vF73skazj-17" value="Обработка задачи" style="rounded=1;whiteSpace=wrap;html=1;arcSize=40;fontColor=#000000;fillColor=#ffffc0;strokeColor=#ff0000;" vertex="1" parent="1">
          <mxGeometry x="220" y="-1043" width="120" height="40" as="geometry" />
        </mxCell>
        <mxCell id="gtn26Jor4i3vF73skazj-18" value="" style="edgeStyle=orthogonalEdgeStyle;html=1;verticalAlign=bottom;endArrow=open;endSize=8;strokeColor=#ff0000;rounded=0;entryX=0.5;entryY=0;entryDx=0;entryDy=0;" edge="1" parent="1" source="gtn26Jor4i3vF73skazj-17" target="gtn26Jor4i3vF73skazj-15">
          <mxGeometry relative="1" as="geometry">
            <mxPoint x="280" y="-983" as="targetPoint" />
            <Array as="points">
              <mxPoint x="280" y="-990" />
              <mxPoint x="115" y="-990" />
            </Array>
          </mxGeometry>
        </mxCell>
        <mxCell id="gtn26Jor4i3vF73skazj-21" value="Есть задача и данные" style="rhombus;whiteSpace=wrap;html=1;fontColor=#000000;fillColor=#ffffc0;strokeColor=#ff0000;" vertex="1" parent="1">
          <mxGeometry x="240" y="-910" width="80" height="50" as="geometry" />
        </mxCell>
        <mxCell id="gtn26Jor4i3vF73skazj-22" value="no" style="edgeStyle=orthogonalEdgeStyle;html=1;align=left;verticalAlign=bottom;endArrow=open;endSize=8;strokeColor=#ff0000;rounded=0;entryX=0.5;entryY=0;entryDx=0;entryDy=0;" edge="1" source="gtn26Jor4i3vF73skazj-21" parent="1" target="gtn26Jor4i3vF73skazj-25">
          <mxGeometry x="-1" y="-58" relative="1" as="geometry">
            <mxPoint x="420" y="-890" as="targetPoint" />
            <Array as="points">
              <mxPoint x="395" y="-890" />
              <mxPoint x="395" y="-1090" />
              <mxPoint x="530" y="-1090" />
            </Array>
            <mxPoint x="-30" y="-8" as="offset" />
          </mxGeometry>
        </mxCell>
        <mxCell id="gtn26Jor4i3vF73skazj-23" value="yes" style="edgeStyle=orthogonalEdgeStyle;html=1;align=left;verticalAlign=top;endArrow=open;endSize=8;strokeColor=#ff0000;rounded=0;" edge="1" source="gtn26Jor4i3vF73skazj-21" parent="1">
          <mxGeometry x="-1" y="71" relative="1" as="geometry">
            <mxPoint x="280" y="-810" as="targetPoint" />
            <mxPoint x="-21" y="-50" as="offset" />
          </mxGeometry>
        </mxCell>
        <mxCell id="gtn26Jor4i3vF73skazj-24" value="" style="ellipse;html=1;shape=endState;fillColor=#000000;strokeColor=#ff0000;" vertex="1" parent="1">
          <mxGeometry x="265" y="-810" width="30" height="30" as="geometry" />
        </mxCell>
        <mxCell id="gtn26Jor4i3vF73skazj-25" value="Подготовка датасета" style="rounded=1;whiteSpace=wrap;html=1;arcSize=40;fontColor=#000000;fillColor=#ffffc0;strokeColor=#ff0000;" vertex="1" parent="1">
          <mxGeometry x="470" y="-1073" width="120" height="40" as="geometry" />
        </mxCell>
        <mxCell id="gtn26Jor4i3vF73skazj-26" value="" style="edgeStyle=orthogonalEdgeStyle;html=1;verticalAlign=bottom;endArrow=open;endSize=8;strokeColor=#ff0000;rounded=0;" edge="1" source="gtn26Jor4i3vF73skazj-25" parent="1">
          <mxGeometry relative="1" as="geometry">
            <mxPoint x="530" y="-1000" as="targetPoint" />
          </mxGeometry>
        </mxCell>
        <mxCell id="gtn26Jor4i3vF73skazj-27" value="Выбор&amp;nbsp; алгоритма" style="rounded=1;whiteSpace=wrap;html=1;arcSize=40;fontColor=#000000;fillColor=#ffffc0;strokeColor=#ff0000;" vertex="1" parent="1">
          <mxGeometry x="470" y="-1000" width="120" height="40" as="geometry" />
        </mxCell>
        <mxCell id="gtn26Jor4i3vF73skazj-28" value="" style="edgeStyle=orthogonalEdgeStyle;html=1;verticalAlign=bottom;endArrow=open;endSize=8;strokeColor=#ff0000;rounded=0;" edge="1" parent="1" source="gtn26Jor4i3vF73skazj-27">
          <mxGeometry relative="1" as="geometry">
            <mxPoint x="530" y="-930" as="targetPoint" />
          </mxGeometry>
        </mxCell>
        <mxCell id="gtn26Jor4i3vF73skazj-29" value="Обучение модели" style="rounded=1;whiteSpace=wrap;html=1;arcSize=40;fontColor=#000000;fillColor=#ffffc0;strokeColor=#ff0000;" vertex="1" parent="1">
          <mxGeometry x="470" y="-930" width="120" height="40" as="geometry" />
        </mxCell>
        <mxCell id="gtn26Jor4i3vF73skazj-30" value="" style="edgeStyle=orthogonalEdgeStyle;html=1;verticalAlign=bottom;endArrow=open;endSize=8;strokeColor=#ff0000;rounded=0;" edge="1" parent="1" source="gtn26Jor4i3vF73skazj-29">
          <mxGeometry relative="1" as="geometry">
            <mxPoint x="530" y="-857" as="targetPoint" />
          </mxGeometry>
        </mxCell>
        <mxCell id="gtn26Jor4i3vF73skazj-33" value="Релиз модели и документации" style="rounded=1;whiteSpace=wrap;html=1;arcSize=40;fontColor=#000000;fillColor=#ffffc0;strokeColor=#ff0000;" vertex="1" parent="1">
          <mxGeometry x="470" y="-855" width="120" height="40" as="geometry" />
        </mxCell>
        <mxCell id="gtn26Jor4i3vF73skazj-34" value="" style="edgeStyle=orthogonalEdgeStyle;html=1;verticalAlign=bottom;endArrow=open;endSize=8;strokeColor=#ff0000;rounded=0;" edge="1" parent="1" source="gtn26Jor4i3vF73skazj-33">
          <mxGeometry relative="1" as="geometry">
            <mxPoint x="530" y="-780" as="targetPoint" />
          </mxGeometry>
        </mxCell>
        <mxCell id="gtn26Jor4i3vF73skazj-35" value="" style="ellipse;html=1;shape=endState;fillColor=#000000;strokeColor=#ff0000;" vertex="1" parent="1">
          <mxGeometry x="515" y="-780" width="30" height="30" as="geometry" />
        </mxCell>
      </root>
    </mxGraphModel>
  </diagram>
</mxfile>
